<svg viewBox="0 0 500 500" xmlns="http://www.w3.org/2000/svg">
  <defs>
    <style>
      .cls-1{fill:#282828}
    </style>
  </defs>
  <path class="cls-1" d="M250 193.27A56.73 56.73 0 1 0 306.73 250 56.8 56.8 0 0 0 250 193.27z"/>
  <path class="cls-1" d="M316.74 105.49H183.26a77.86 77.86 0 0 0-77.77 77.77v133.48a77.86 77.86 0 0 0 77.77 77.77h133.48a77.86 77.86 0 0 0 77.77-77.77V183.26a77.86 77.86 0 0 0-77.77-77.77zM250 336.7a86.7 86.7 0 1 1 86.7-86.7 86.8 86.8 0 0 1-86.7 86.7zm95.27-160.26A21.41 21.41 0 1 1 366.68 155a21.41 21.41 0 0 1-21.41 21.45z"/>
  <path class="cls-1" d="M484.85 124.74a144.17 144.17 0 0 0-2.32-25.29c-1.94-10.19-4.67-20.12-9.55-29.33A101.84 101.84 0 0 0 453.39 44a97.14 97.14 0 0 0-42.76-24.4c-14.83-4-30-4.84-45.21-4.82a.46.46 0 0 1-.09-.23H134.59v.23c-8.65.16-17.32.09-25.92 1.16A123.46 123.46 0 0 0 81 22.14a97.48 97.48 0 0 0-36.75 24.12 97.15 97.15 0 0 0-24.57 42.91c-3.94 14.72-4.8 29.73-4.82 44.85l-.16 231.67c.28 10.45.37 21 2.13 31.36 1.87 11 4.54 21.71 9.64 31.69A101.36 101.36 0 0 0 54.77 463a91.91 91.91 0 0 0 28.31 15.35c15.12 4.88 30.72 6.75 46.55 6.84 9.88.06 19.74.31 29.62.27 71.74-.3 143.49.52 215.23-.44a169.32 169.32 0 0 0 28.23-3A95.61 95.61 0 0 0 450 459c15.78-14.08 26.43-31.3 31.24-52.09 3.15-13.59 3.93-27.38 4.07-41.21v-2.76c-.01-1.08-.42-235.1-.46-238.2zm-60.38 192a107.87 107.87 0 0 1-107.73 107.74H183.26A107.87 107.87 0 0 1 75.52 316.74V183.26A107.87 107.87 0 0 1 183.26 75.52h133.48a107.87 107.87 0 0 1 107.74 107.74z"/>
</svg>
